<svg width="28" height="28" viewBox="0 0 28 28" fill="none" xmlns="http://www.w3.org/2000/svg">
<g clip-path="url(#clip0_8361_90515)">
<path d="M4.66667 0C3.42899 0 2.242 0.491665 1.36683 1.36683C0.491665 2.242 0 3.42899 0 4.66667L0 8.4C0 19.2248 8.7752 28 19.6 28H23.3333C24.571 28 25.758 27.5083 26.6332 26.6332C27.5083 25.758 28 24.571 28 23.3333V20.7536C28 20.2333 27.855 19.7234 27.5813 19.2809C27.3077 18.8384 26.9162 18.4809 26.4507 18.2485L21.9427 15.9936C21.5838 15.8142 21.1905 15.714 20.7895 15.6998C20.3885 15.6856 19.9891 15.7578 19.6184 15.9115C19.2477 16.0651 18.9144 16.2967 18.641 16.5904C18.3676 16.8841 18.1606 17.2331 18.0339 17.6139L17.4776 19.2808C17.3752 19.5867 17.1648 19.8448 16.8858 20.0066C16.6067 20.1685 16.2782 20.223 15.9619 20.16C13.9578 19.7591 12.1173 18.7742 10.672 17.3292C9.22669 15.8843 8.24132 14.0439 7.84 12.04C7.77698 11.7236 7.83151 11.3951 7.99337 11.1161C8.15522 10.8371 8.41329 10.6266 8.7192 10.5243L10.7893 9.8336C11.4583 9.6102 12.0184 9.14255 12.3575 8.52413C12.6967 7.90571 12.7899 7.18207 12.6187 6.49787L11.5248 2.1224C11.3737 1.5167 11.0246 0.978855 10.5328 0.594313C10.0411 0.209771 9.43492 0.000588689 8.81067 0L4.66667 0Z" fill="white"/>
</g>
<defs>
<clipPath id="clip0_8361_90515">
<rect width="28" height="28" fill="white"/>
</clipPath>
</defs>
</svg>
